<?xml version="1.0" encoding="utf-8"?>
<!-- Generator: Adobe Illustrator 28.0.0, SVG Export Plug-In . SVG Version: 6.00 Build 0)  -->
<svg version="1.1" id="visual" xmlns="http://www.w3.org/2000/svg" xmlns:xlink="http://www.w3.org/1999/xlink" x="0px" y="0px"
	 viewBox="0 0 960 540" style="enable-background:new 0 0 960 540;" xml:space="preserve">
<style type="text/css">
	.st0{fill:#1E297B;}
	.st1{fill:#10153F;}
	.st2{fill:#1F2A7D;}
	.st3{fill:#2F3FBB;}
	.st4{fill:#3E54FA;}
</style>
<path class="st0" d="M0,103.5l87,54l88-33l87,6l87,32h87l88,5l87,6l87-38l87-32l88,21l87,22v-147h-87h-88h-87h-87h-87h-88h-87h-87
	h-87H87H0V103.5z"/>
<path class="st1" d="M0,184.5l87,10l88,17l87,5l87-11l87,33l88-6l87-11l87-37l87-38l88,43h87v-45l-87-22l-88-21l-87,32l-87,38l-87-6
	l-88-5h-87l-87-32l-87-6l-88,33l-87-54V184.5z"/>
<path class="st2" d="M0,227.5l87,21l88,38l87,22l87-6l87,33l88-38l87-16l87-22l87-5l88,32l87-32v-67h-87l-88-43l-87,38l-87,37
	l-87,11l-88,6l-87-33l-87,11l-87-5l-88-17l-87-10V227.5z"/>
<path class="st3" d="M0,356.5l87,38l88-48l87,21l87,60l87,21l88-86l87,27l87-38l87,27l88-11l87,33v-148l-87,32l-88-32l-87,5l-87,22
	l-87,16l-88,38l-87-33l-87,6l-87-22l-88-38l-87-21V356.5z"/>
<path class="st4" d="M0,540.5h87h88h87h87h87h88h87h87h87h88h87v-142l-87-33l-88,11l-87-27l-87,38l-87-27l-88,86l-87-21l-87-60
	l-87-21l-88,48l-87-38V540.5z"/>
</svg>
