<?xml version="1.0" encoding="utf-8"?>
<!-- Generator: Adobe Illustrator 28.0.0, SVG Export Plug-In . SVG Version: 6.00 Build 0)  -->
<svg version="1.1" id="Layer_1" xmlns="http://www.w3.org/2000/svg" xmlns:xlink="http://www.w3.org/1999/xlink" x="0px" y="0px"
	 viewBox="0 0 960 541" style="enable-background:new 0 0 960 541;" xml:space="preserve">
<style type="text/css">
	.st0{fill:#1E297B;}
	.st1{fill:#3E54FA;}
	.st2{fill:#8997FB;}
</style>
<rect class="st0" width="960" height="541"/>
<path class="st1" d="M55.8,106.2H37.7v-7.8h18.1V80.3h7.8v18.1h18.1v7.8H63.6v18h-7.8V106.2z"/>
<path class="st1" d="M43.2,282.6l-5.4-5.4l16.4-16.4l-16.4-16.4l5.4-5.4l16.4,16.4L76,239l5.4,5.4L65,260.8l16.4,16.4l-5.4,5.4
	l-16.4-16.4L43.2,282.6z"/>
<path class="st1" d="M769.3,201l-19-18.9l19-19l5.6,5.5l-13.5,13.5l13.4,13.4L769.3,201z M794,201.1l-5.6-5.5l13.5-13.5l-13.4-13.4
	l5.5-5.5l19,18.9L794,201.1z"/>
<path class="st1" d="M886.6,446.5v-7.7h9.2v-34.3h-9.2v-7.7h16.9v49.7C903.6,446.5,886.6,446.5,886.6,446.5z M853.7,446.5v-49.8
	h16.9v7.7h-9.2v34.3h9.2v7.7C870.7,446.5,853.7,446.5,853.7,446.5z"/>
<path class="st1" d="M791.1,366.6v-7.7h7c1,0,1.8-0.3,2.5-1s1-1.5,1-2.5v-4.6c0-1.9,0.5-3.6,1.6-5.2c1.1-1.5,2.5-2.6,4.4-3.3v-1
	c-1.8-0.7-3.3-1.8-4.4-3.3s-1.6-3.3-1.6-5.2v-4.7c0-1-0.3-1.8-1-2.5s-1.5-1-2.5-1h-7v-7.7h8.4c2.7,0,5,1,7,2.9s2.9,4.3,2.9,7v4.6
	c0,1,0.3,1.8,1,2.5s1.5,1,2.5,1h2.4v13.7h-2.4c-1,0-1.8,0.3-2.5,1s-1,1.5-1,2.5v4.7c0,2.8-1,5.1-2.9,7s-4.2,2.9-7,2.9
	C799.4,366.6,791.1,366.6,791.1,366.6z M769.3,366.6c-2.7,0-5-1-7-2.9c-1.9-1.9-2.9-4.3-2.9-7V352c0-1-0.3-1.8-1-2.5s-1.5-1-2.5-1
	h-2.4v-13.7h2.4c1,0,1.8-0.3,2.5-1s1-1.5,1-2.5v-4.6c0-2.8,1-5.1,2.9-7s4.2-2.9,7-2.9h8.4v7.7h-6.9c-1,0-1.8,0.3-2.5,1s-1,1.5-1,2.5
	v4.7c0,1.9-0.5,3.6-1.6,5.2c-1.1,1.5-2.5,2.6-4.3,3.3v1c1.8,0.7,3.2,1.8,4.3,3.3s1.6,3.3,1.6,5.2v4.6c0,1,0.3,1.8,1,2.5s1.5,1,2.5,1
	h6.9v7.7C777.7,366.6,769.3,366.6,769.3,366.6z"/>
<path class="st1" d="M865.3,117.9v-10.8h49.8v10.7L865.3,117.9L865.3,117.9z M865.3,97.4V86.7h49.8v10.7
	C915.1,97.4,865.3,97.4,865.3,97.4z"/>
<path class="st1" d="M139.4,200.3v-7h5.1l8.1-8.7l-8.1-8.6h-5.2l-4.6,24.9c-0.5,2.6-1.7,4.7-3.4,6.2s-3.9,2.3-6.4,2.3s-4.5-0.7-6-2
	c-1.6-1.3-2.3-3.1-2.3-5.2c0-1.7,0.5-3.1,1.4-4.2c1-1.1,2.2-1.6,3.6-1.6s2.6,0.5,3.6,1.5s1.5,2.2,1.5,3.5c0,0.2,0,0.3,0,0.5
	s0,0.3,0,0.5c0.2,0,0.4-0.1,0.6-0.3s0.3-0.4,0.3-0.8l4.7-25.3h-9.1v-7h10.4l1.4-7.1c0.5-2.5,1.6-4.4,3.4-5.9
	c1.8-1.5,3.9-2.2,6.3-2.2c2.4,0,4.4,0.7,6,2.1c1.6,1.4,2.3,3.1,2.3,5.3c0,1.7-0.5,3-1.4,4.1c-1,1.1-2.2,1.6-3.6,1.6
	c-1.4,0-2.6-0.5-3.6-1.5s-1.5-2.2-1.5-3.6c0-0.2,0-0.3,0-0.5s0-0.3,0-0.5c-0.3,0-0.5,0.2-0.6,0.3s-0.3,0.4-0.3,0.7l-1.4,7.2H156v7
	h-2.2l3.5,3.8l3.6-3.8h-2.2v-7h16.5v7h-5.1l-8.2,8.6l8.2,8.7h5.1v7h-16.5v-7h2.2l-3.6-3.8l-3.6,3.8h2.2v7
	C156,200.3,139.4,200.3,139.4,200.3z"/>
<path class="st1" d="M126.9,365v-7.7l18.8-17.2l-18.8-17.2v-7.7H165v11.3h-19.6l14.3,13.6l-14.3,13.6H165V365H126.9z"/>
<path class="st1" d="M55.7,417.1c-3.1,0-5.8-1.1-8-3.3c-2.2-2.2-3.3-4.9-3.3-8.1c0-3.1,1.1-5.8,3.3-8s4.9-3.3,8-3.3s5.8,1.1,8.1,3.3
	c2.2,2.2,3.3,4.9,3.3,8s-1.1,5.8-3.3,8.1C61.5,416,58.8,417.1,55.7,417.1z M55.7,409.3c1,0,1.9-0.4,2.6-1.1c0.7-0.7,1.1-1.6,1.1-2.6
	s-0.4-1.8-1.1-2.5c-0.7-0.7-1.6-1-2.6-1s-1.8,0.3-2.5,1s-1,1.5-1,2.5s0.3,1.9,1,2.6C53.8,409,54.7,409.3,55.7,409.3z M82.8,444.2
	c-3.1,0-5.8-1.1-8-3.3c-2.2-2.2-3.3-4.9-3.3-8s1.1-5.8,3.3-8c2.2-2.2,4.9-3.3,8.1-3.3c3.1,0,5.8,1.1,8,3.3c2.2,2.2,3.3,4.9,3.3,8
	s-1.1,5.8-3.3,8C88.6,443.1,85.9,444.2,82.8,444.2z M82.8,436.4c1,0,1.8-0.3,2.5-1s1-1.5,1-2.5s-0.3-1.8-1-2.5s-1.5-1-2.5-1
	s-1.9,0.3-2.6,1s-1.1,1.5-1.1,2.5s0.4,1.8,1.1,2.5C80.9,436,81.8,436.4,82.8,436.4z M49.7,444.2l-5.4-5.4l44.4-44.4l5.4,5.4
	C94.1,399.7,49.7,444.2,49.7,444.2z"/>
<path class="st1" d="M864,286.9c-2.2,0-4-0.8-5.5-2.3s-2.3-3.3-2.3-5.5v-34.2c0-2.2,0.8-4,2.3-5.5s3.3-2.3,5.5-2.3h46
	c2.2,0,4,0.8,5.5,2.3s2.3,3.3,2.3,5.5v34.2c0,2.2-0.8,4-2.3,5.5s-3.3,2.3-5.5,2.3C909.9,286.9,864,286.9,864,286.9z M864,279.1h46
	v-28.4h-46V279.1z M873.7,276.6l-4.1-4.1l7.6-7.6l-7.6-7.6l4.2-4.1l11.7,11.7L873.7,276.6z M886.9,276.6v-5.9h17.6v5.9H886.9z"/>
<g>
	<path id="path1032_00000054973756454296125450000013059667591637704587_" class="st2" d="M481.7,87.7c0,1.8-0.3,3.5-1,5.1
		c-0.7,1.6-1.6,3.1-2.7,4.6c-1.1,1.4-2.4,2.7-4,3.9c-1.5,1.1-3.1,2.1-4.8,3c-1.7,0.8-3.4,1.5-5.1,1.9c-1.7,0.4-3.4,0.7-5.1,0.7h-0.5
		c-0.2,0-0.3,0-0.5-0.1l0.3-1.7c1.3-0.2,2.7-0.6,4-1c1.4-0.5,2.7-1,4-1.7c1.3-0.7,2.4-1.5,3.5-2.4c1.1-0.9,2-1.9,2.8-3
		c0.8-1.1,1.4-2.4,1.9-3.7c0.5-1.3,0.7-2.8,0.7-4.3c0-1.5-0.2-2.8-0.7-4c-0.5-1.2-1.1-2.3-2-3.2c-0.8-0.9-1.9-1.6-3.1-2.1
		c-1.2-0.5-2.5-0.8-4-0.8c-1.5,0-3.1,0.2-4.7,0.5c-1.6,0.3-3.2,0.8-4.7,1.5c-1.6,0.6-3.1,1.4-4.5,2.3c-1.4,0.9-2.8,1.9-4,3l-1-1
		c1.4-1.4,3-2.7,4.8-3.9c1.8-1.2,3.7-2.3,5.7-3.2c2-0.9,4-1.7,6-2.2c2-0.5,4-0.8,5.9-0.8c1.8,0,3.5,0.3,5,1c1.6,0.6,2.9,1.5,4,2.6
		c1.1,1.1,2.1,2.5,2.7,4C481.3,84.1,481.7,85.9,481.7,87.7L481.7,87.7z M454.3,119.7h-2.8c-2.2-10.7-3.4-21.5,0-35.2h2.8
		C457.4,98.2,455.7,109,454.3,119.7z"/>
	<path id="path1034_00000135681726208960353210000009191298189375940503_" class="st2" d="M476.1,103c0.5-1.8,1.3-3.4,2.4-4.8
		c1.1-1.4,2.4-2.7,3.9-3.8c1.5-1.1,3.2-2,5-2.8c1.8-0.7,3.7-1.3,5.5-1.7c1.9-0.4,3.8-0.5,5.6-0.5c1.9,0,3.6,0.2,5.2,0.7
		c0.2,0,0.3,0.1,0.5,0.1c0.2,0,0.3,0.1,0.5,0.2L504,92c-1.4-0.1-2.8-0.2-4.3-0.1c-1.5,0.1-3,0.3-4.4,0.7c-1.4,0.4-2.8,0.8-4.1,1.5
		c-1.3,0.6-2.5,1.4-3.6,2.3c-1.1,0.9-2.1,2-2.9,3.1c-0.8,1.2-1.4,2.6-1.8,4.1c-0.4,1.5-0.5,2.9-0.4,4.2c0.1,1.4,0.5,2.6,1.1,3.7
		c0.6,1.1,1.4,2.1,2.5,2.9c1,0.8,2.3,1.4,3.8,1.8c1.5,0.4,3.1,0.6,4.8,0.7c1.7,0.1,3.4,0,5.1-0.2c1.7-0.2,3.4-0.6,5.1-1.1
		c1.7-0.5,3.3-1.2,4.8-1.9l0.7,1.3c-1.8,1-3.7,1.9-5.8,2.6c-2.1,0.7-4.3,1.3-6.5,1.7c-2.2,0.4-4.4,0.6-6.5,0.6c-2.2,0-4.2-0.3-6-0.8
		c-1.8-0.5-3.4-1.2-4.7-2.3c-1.4-1-2.5-2.3-3.3-3.7c-0.8-1.4-1.4-3-1.6-4.7C475.5,106.6,475.6,104.8,476.1,103L476.1,103z"/>
</g>
</svg>
